<?xml version="1.0" encoding="UTF-8" standalone="no"?>
<!-- Created with Inkscape (http://www.inkscape.org/) -->

<svg
   xmlns:dc="http://purl.org/dc/elements/1.1/"
   xmlns:cc="http://creativecommons.org/ns#"
   xmlns:rdf="http://www.w3.org/1999/02/22-rdf-syntax-ns#"
   xmlns:svg="http://www.w3.org/2000/svg"
   xmlns="http://www.w3.org/2000/svg"
   xmlns:sodipodi="http://sodipodi.sourceforge.net/DTD/sodipodi-0.dtd"
   xmlns:inkscape="http://www.inkscape.org/namespaces/inkscape"
   width="128"
   height="128"
   viewBox="0 0 33.866667 33.866667"
   version="1.1"
   id="svg821"
   inkscape:version="0.91 r13725"
   sodipodi:docname="KDElogoBoxGrey.svg">
  <defs
     id="defs815" />
  <sodipodi:namedview
     id="base"
     pagecolor="#ffffff"
     bordercolor="#666666"
     borderopacity="1.0"
     inkscape:pageopacity="0.0"
     inkscape:pageshadow="2"
     inkscape:zoom="7.919596"
     inkscape:cx="60.073512"
     inkscape:cy="76.036849"
     inkscape:document-units="mm"
     inkscape:current-layer="layer1"
     showgrid="true"
     units="px"
     inkscape:window-width="3840"
     inkscape:window-height="2045"
     inkscape:window-x="0"
     inkscape:window-y="0"
     inkscape:window-maximized="1"
     width="128px">
    <inkscape:grid
       type="xygrid"
       id="grid1391" />
  </sodipodi:namedview>
  <metadata
     id="metadata818">
    <rdf:RDF>
      <cc:Work
         rdf:about="">
        <dc:format>image/svg+xml</dc:format>
        <dc:type
           rdf:resource="http://purl.org/dc/dcmitype/StillImage" />
        <dc:title />
      </cc:Work>
    </rdf:RDF>
  </metadata>
  <g
     inkscape:label="Layer 1"
     inkscape:groupmode="layer"
     id="layer1"
     transform="translate(0,-263.13332)">
    <g
       id="g1395"
       transform="matrix(0.56888894,0,0,0.56888894,-1.0093054e-6,113.74072)"
       inkscape:export-filename="/home/jens/Pictures/Clipart/KDELogoBlueGrey.png"
       inkscape:export-xdpi="595.31"
       inkscape:export-ydpi="595.31">
      <rect
         y="262.60416"
         x="-5.5511151e-17"
         height="59.53125"
         width="59.53125"
         id="rect4157"
         style="opacity:1;fill:#31363b;fill-opacity:1;stroke:none;stroke-width:0.26458332;stroke-miterlimit:4;stroke-dasharray:0.26458333, 1.05833332;stroke-dashoffset:0;stroke-opacity:1" />
      <path
         inkscape:connector-curvature="0"
         id="path5692_2_-3"
         d="m 33.057598,270.23892 -7.56285,0.72399 0,31.14073 7.48275,-1.12655 0,-13.27722 10.0583,14.72623 7.88531,-2.49494 -10.29963,-14.16244 10.38025,-13.35784 -8.04602,-1.85001 -9.97821,13.35732 z m -17.14314,7.58868 c -0.0854,0.009 -0.16788,0.0465 -0.23202,0.11111 l -2.9683,2.96778 c -0.1248,0.12518 -0.14831,0.31923 -0.0563,0.47077 l 3.47524,5.72368 c -0.61637,1.03624 -1.11039,2.15348 -1.46347,3.33209 l -6.3799798,1.32705 c -0.17751,0.0368 -0.3054,0.19405 -0.3054,0.37621 l 0,4.19716 c 0,0.17751 0.12144,0.33124 0.29248,0.37259 l 6.1923898,1.5136 c 0.33022,1.36503 0.84194,2.65901 1.51826,3.84834 l -3.58428,5.46582 c -0.1,0.1527 -0.0791,0.35398 0.0501,0.48266 l 2.96726,2.96778 c 0.1248,0.12453 0.31963,0.14882 0.47181,0.0573 l 5.61671,-3.41116 c 1.10329,0.63666 2.29314,1.13766 3.55069,1.47743 l 1.31051,6.30091 c 0.0369,0.17854 0.1947,0.30541 0.37569,0.30541 l 4.19768,0 c 0.17647,0 0.33047,-0.12041 0.37259,-0.29353 l 1.54357,-6.31382 c 1.2963,-0.34985 2.52233,-0.87127 3.65249,-1.53686 l 5.53506,3.62924 c 0.15219,0.10025 0.35347,0.0801 0.48266,-0.0491 l 2.9683,-2.96778 c 0.12557,-0.12558 0.14805,-0.31962 0.0558,-0.47077 l -2.02055,-3.33003 -0.65371,0.2067 c -0.0953,0.03 -0.19921,-0.005 -0.25528,-0.0884 0,0 -1.28881,-1.8867 -2.95331,-4.32273 -1.9898,3.89434 -6.03813,6.56187 -10.71304,6.56187 -6.64184,0 -12.02666,-5.38494 -12.02666,-12.02717 0,-4.88626 2.91443,-9.08846 7.09828,-10.9709 l 0,-3.10265 c -0.76145,0.26639 -1.49758,0.58755 -2.19677,0.96841 -5.3e-4,-5.3e-4 -0.001,-0.002 -0.003,-0.003 l -5.66529,-3.71552 c -0.0763,-0.0499 -0.16473,-0.0698 -0.25011,-0.061 z"
         style="fill:#fcfcfc;fill-opacity:1;stroke-width:0.26458332" />
    </g>
  </g>
</svg>
